<svg width="18" height="18" viewBox="0 0 18 18" fill="none" xmlns="http://www.w3.org/2000/svg">
<path d="M16.75 8.35293C16.5876 8.35375 16.4295 8.29504 16.3 8.18587L8.75 1.88219L1.2 8.18587C1.04087 8.31879 0.84085 8.37587 0.643937 8.34454C0.447024 8.31321 0.269351 8.19604 0.150003 8.01882C0.0306558 7.84159 -0.0205895 7.61882 0.00754093 7.39951C0.0356714 7.1802 0.140873 6.98232 0.300003 6.8494L8.3 0.167059C8.42982 0.0586192 8.58773 0 8.75 0C8.91228 0 9.07018 0.0586192 9.2 0.167059L17.2 6.8494C17.3452 6.98076 17.4411 7.16783 17.4689 7.37388C17.4966 7.57993 17.4542 7.7901 17.35 7.96313C17.2863 8.07782 17.1982 8.17335 17.0936 8.24131C16.989 8.30927 16.871 8.3476 16.75 8.35293Z" fill="black"/>
<path d="M14.75 17.2627H2.75C2.55189 17.2598 2.36263 17.1709 2.22253 17.0148C2.08244 16.8588 2.00259 16.648 2 16.4274V5.84701C2 5.62548 2.07902 5.41302 2.21967 5.25637C2.36032 5.09972 2.55109 5.01172 2.75 5.01172C2.94891 5.01172 3.13968 5.09972 3.28033 5.25637C3.42098 5.41302 3.5 5.62548 3.5 5.84701V15.5921H14V5.84701C14 5.62548 14.079 5.41302 14.2197 5.25637C14.3603 5.09972 14.5511 5.01172 14.75 5.01172C14.9489 5.01172 15.1397 5.09972 15.2803 5.25637C15.421 5.41302 15.5 5.62548 15.5 5.84701V16.4274C15.4974 16.648 15.4176 16.8588 15.2775 17.0148C15.1374 17.1709 14.9481 17.2598 14.75 17.2627Z" fill="black"/>
<path d="M10.75 17.2626C10.5519 17.2597 10.3626 17.1707 10.2225 17.0147C10.0824 16.8587 10.0026 16.6479 10 16.4273V9.46649H7.5V16.4273C7.5 16.6488 7.42098 16.8613 7.28033 17.0179C7.13968 17.1746 6.94891 17.2626 6.75 17.2626C6.55109 17.2626 6.36032 17.1746 6.21967 17.0179C6.07902 16.8613 6 16.6488 6 16.4273V8.63119C6.00259 8.41056 6.08244 8.19977 6.22253 8.04374C6.36263 7.88771 6.55189 7.79878 6.75 7.7959H10.75C10.9481 7.79878 11.1374 7.88771 11.2775 8.04374C11.4176 8.19977 11.4974 8.41056 11.5 8.63119V16.4273C11.4974 16.6479 11.4176 16.8587 11.2775 17.0147C11.1374 17.1707 10.9481 17.2597 10.75 17.2626Z" fill="black"/>
</svg>
