<svg width="40" height="40" viewBox="0 0 40 40" fill="none" xmlns="http://www.w3.org/2000/svg">
<circle cx="20" cy="20" r="20" fill="#7B2224"/>
<path d="M25.0829 15.3344C25.6759 15.1194 25.9709 15.0424 26.1329 15.0144C26.1342 15.0677 26.1336 15.1084 26.1309 15.1364C25.8989 17.5804 24.8799 23.5934 24.3559 26.3914C24.2339 27.0464 24.1399 27.3584 23.5059 26.9864C23.0899 26.7414 22.7139 26.4334 22.3099 26.1694C20.9849 25.3004 19.0889 24.0074 19.2449 24.0854C17.9409 23.2254 18.4869 22.6994 19.2149 21.9974C19.3319 21.8844 19.4549 21.7664 19.5749 21.6414C19.6289 21.5854 19.8919 21.3414 20.2619 20.9964C21.4499 19.8924 23.7459 17.7574 23.8039 17.5104C23.8139 17.4704 23.8219 17.3184 23.7329 17.2394C23.6429 17.1594 23.5099 17.1864 23.4149 17.2084C23.2796 17.239 21.1216 18.6654 16.9409 21.4874C16.3289 21.9074 15.7742 22.112 15.2769 22.1014L15.2819 22.1044C14.6269 21.8734 13.9739 21.6744 13.3179 21.4744C12.8832 21.3438 12.4498 21.2088 12.0179 21.0694L11.7099 20.9714C16.2369 18.9994 19.2519 17.7014 20.7629 17.0724C22.9569 16.1594 24.2589 15.6344 25.0829 15.3344ZM27.5059 13.4064C27.2931 13.2378 27.0449 13.1195 26.7799 13.0604C26.5799 13.0124 26.3899 12.9974 26.2469 13.0004C25.7699 13.0084 25.2589 13.1434 24.4009 13.4544C23.5259 13.7724 22.1819 14.3164 19.9949 15.2254C18.4516 15.8674 15.3842 17.1887 10.7929 19.1894C10.3889 19.3504 10.0199 19.5334 9.72789 19.7494C9.45789 19.9504 9.08089 20.3094 9.01189 20.8594C8.95989 21.2754 9.08089 21.6594 9.32689 21.9624C9.54089 22.2254 9.81489 22.3854 10.0239 22.4864C10.3339 22.6364 10.7519 22.7674 11.1189 22.8824C11.6919 23.0624 12.2629 23.2454 12.8379 23.4214C14.6159 23.9654 16.0799 24.4134 17.6899 25.4754C18.8709 26.2534 20.0299 27.0654 21.2129 27.8414C21.6449 28.1244 22.0479 28.4494 22.4929 28.7114C22.9809 28.9964 23.5989 29.2574 24.3529 29.1884C25.4909 29.0834 26.0829 28.0364 26.3229 26.7584C26.8439 23.9684 27.8799 17.8724 28.1229 15.3264C28.1451 15.0309 28.1327 14.7339 28.0859 14.4414C28.0267 14.0367 27.8201 13.6681 27.5059 13.4064Z" fill="white"/>
</svg>
