<svg width="40" height="40" viewBox="0 0 40 40" fill="none" xmlns="http://www.w3.org/2000/svg">
<g clip-path="url(#clip0_281_1063)">
<circle cx="20" cy="20" r="19" fill="white"/>
<path d="M20 0.800049C9.396 0.800049 0.800003 9.39605 0.800003 20C0.800003 30.604 9.396 39.2001 20 39.2001C30.604 39.2001 39.2 30.604 39.2 20C39.2 9.39605 30.604 0.800049 20 0.800049ZM27.384 22.462C27.384 22.462 29.082 24.1381 29.5 24.916C29.512 24.9334 29.5193 24.9467 29.522 24.956C29.6913 25.24 29.7333 25.4647 29.648 25.63C29.508 25.906 29.028 26.0421 28.864 26.0541H25.864C25.656 26.0541 25.22 26 24.692 25.636C24.286 25.352 23.886 24.886 23.496 24.432C22.914 23.756 22.41 23.1721 21.902 23.1721C21.8375 23.1718 21.7733 23.1819 21.712 23.202C21.328 23.326 20.836 23.8741 20.836 25.334C20.836 25.79 20.476 26.052 20.222 26.052H18.848C18.38 26.052 15.942 25.8881 13.782 23.6101C11.138 20.82 8.758 15.224 8.738 15.172C8.588 14.81 8.898 14.616 9.236 14.616H12.266C12.67 14.616 12.802 14.862 12.894 15.08C13.002 15.334 13.398 16.344 14.048 17.48C15.102 19.332 15.748 20.084 16.266 20.084C16.3631 20.0829 16.4585 20.0582 16.544 20.012C17.22 19.636 17.094 17.226 17.064 16.726C17.064 16.632 17.062 15.648 16.716 15.176C16.468 14.834 16.046 14.704 15.79 14.656C15.8936 14.5131 16.0301 14.3971 16.188 14.318C16.652 14.086 17.488 14.052 18.318 14.052H18.78C19.68 14.064 19.912 14.122 20.238 14.204C20.898 14.362 20.912 14.788 20.854 16.246C20.836 16.66 20.818 17.128 20.818 17.68L20.812 18.064C20.792 18.806 20.768 19.648 21.292 19.994C21.3596 20.0386 21.4391 20.0616 21.52 20.06C21.702 20.06 22.25 20.06 23.734 17.514C24.19 16.6937 24.5876 15.8423 24.924 14.966C24.954 14.914 25.042 14.754 25.146 14.692C25.2236 14.6552 25.3081 14.6354 25.394 14.634H28.956C29.344 14.634 29.61 14.692 29.66 14.842C29.748 15.08 29.644 15.806 28.018 18.008L27.292 18.966C25.818 20.898 25.818 20.996 27.384 22.462Z" fill="#7B2224"/>
</g>
<defs>
<clipPath id="clip0_281_1063">
<rect width="40" height="40" fill="white"/>
</clipPath>
</defs>
</svg>
