<svg width="21" height="21" viewBox="0 0 21 21" fill="none" xmlns="http://www.w3.org/2000/svg">
<path d="M20.9473 15.7225V18.8839C20.9485 19.1774 20.8884 19.4679 20.7709 19.7368C20.6534 20.0057 20.4811 20.247 20.2649 20.4454C20.0488 20.6438 19.7936 20.7949 19.5157 20.8889C19.2378 20.9829 18.9434 21.0179 18.6512 20.9914C15.4103 20.6387 12.2971 19.5307 9.56161 17.7563C7.01675 16.1384 4.85916 13.9798 3.24205 11.4336C1.46238 8.68436 0.354662 5.55449 0.008549 2.29735C-0.0177714 2.00594 0.0168433 1.71225 0.110189 1.43496C0.203534 1.15767 0.353566 0.902866 0.550731 0.686769C0.747896 0.470672 0.987874 0.298016 1.25539 0.179795C1.5229 0.0615741 1.81209 0.000377709 2.10453 0.000102167H5.26431C5.77547 -0.00493117 6.27101 0.176167 6.65858 0.50964C7.04614 0.843114 7.29929 1.30621 7.37083 1.81261C7.50384 2.82438 7.75118 3.81778 8.10811 4.77374C8.24982 5.15091 8.28049 5.56082 8.19649 5.9549C8.11248 6.34898 7.91733 6.71071 7.63414 6.99722L6.29651 8.33552C7.79588 10.9737 9.97918 13.1581 12.6161 14.6582L13.9537 13.3199C14.2401 13.0366 14.6016 12.8413 14.9955 12.7573C15.3894 12.6732 15.7991 12.7039 16.1761 12.8457C17.1316 13.2028 18.1245 13.4503 19.1357 13.5834C19.6474 13.6556 20.1146 13.9134 20.4487 14.3078C20.7827 14.7022 20.9602 15.2057 20.9473 15.7225ZM12.5739 0.000102167C14.7207 0.226422 16.7261 1.17907 18.2582 2.7005C19.7904 4.22194 20.7576 6.22101 21 8.36713M12.5739 4.21523C13.6098 4.4196 14.5604 4.93078 15.3023 5.68242C16.0442 6.43407 16.5431 7.39147 16.7343 8.43036" fill="white"/>
</svg>
