<svg width="33" height="33" viewBox="0 0 33 33" fill="none" xmlns="http://www.w3.org/2000/svg">
<g clip-path="url(#clip0_248_1532)">
<path d="M16.5 0.659912C7.75173 0.659912 0.660034 7.75161 0.660034 16.4999C0.660034 25.2482 7.75173 32.3399 16.5 32.3399C25.2483 32.3399 32.34 25.2482 32.34 16.4999C32.34 7.75161 25.2483 0.659912 16.5 0.659912ZM22.5918 18.5311C22.5918 18.5311 23.9927 19.9138 24.3375 20.5556C24.3474 20.5699 24.3535 20.5809 24.3557 20.5886C24.4954 20.8229 24.53 21.0083 24.4596 21.1447C24.3441 21.3724 23.9481 21.4846 23.8128 21.4945H21.3378C21.1662 21.4945 20.8065 21.4499 20.3709 21.1496C20.036 20.9153 19.706 20.5309 19.3842 20.1563C18.9041 19.5986 18.4883 19.1168 18.0692 19.1168C18.0159 19.1166 17.963 19.1249 17.9124 19.1416C17.5956 19.2439 17.1897 19.696 17.1897 20.9005C17.1897 21.2767 16.8927 21.4928 16.6832 21.4928H15.5496C15.1635 21.4928 13.1522 21.3575 11.3702 19.4782C9.18888 17.1764 7.22538 12.5597 7.20888 12.5168C7.08513 12.2182 7.34088 12.0581 7.61973 12.0581H10.1195C10.4528 12.0581 10.5617 12.2611 10.6376 12.4409C10.7267 12.6505 11.0534 13.4837 11.5896 14.4209C12.4592 15.9488 12.9921 16.5692 13.4195 16.5692C13.4996 16.5683 13.5783 16.5479 13.6488 16.5098C14.2065 16.1996 14.1026 14.2114 14.0778 13.7989C14.0778 13.7213 14.0762 12.9095 13.7907 12.5201C13.5861 12.238 13.238 12.1307 13.0268 12.0911C13.1123 11.9732 13.2249 11.8775 13.3551 11.8123C13.7379 11.6209 14.4276 11.5928 15.1124 11.5928H15.4935C16.236 11.6027 16.4274 11.6506 16.6964 11.7182C17.2409 11.8486 17.2524 12.2 17.2046 13.4029C17.1897 13.7444 17.1749 14.1305 17.1749 14.5859L17.1699 14.9027C17.1534 15.5149 17.1336 16.2095 17.5659 16.495C17.6217 16.5317 17.6873 16.5507 17.754 16.5494C17.9042 16.5494 18.3563 16.5494 19.5806 14.449C19.9568 13.7722 20.2848 13.0697 20.5623 12.3469C20.5871 12.304 20.6597 12.172 20.7455 12.1208C20.8095 12.0904 20.8792 12.0741 20.9501 12.073H23.8887C24.2088 12.073 24.4283 12.1208 24.4695 12.2446C24.5421 12.4409 24.4563 13.0399 23.1149 14.8565L22.5159 15.6469C21.2999 17.2408 21.2999 17.3216 22.5918 18.5311Z" fill="#7B2224"/>
</g>
<defs>
<clipPath id="clip0_248_1532">
<rect width="33" height="33" fill="white"/>
</clipPath>
</defs>
</svg>
